<svg width="33" height="33" viewBox="0 0 33 33" fill="none" xmlns="http://www.w3.org/2000/svg">
<g clip-path="url(#clip0_277_567)">
<path d="M27.2427 22.9L27.376 23.0333C27.6787 23.3386 28.0537 23.5623 28.466 23.6838C28.8784 23.8052 29.3148 23.8204 29.7347 23.728C30.1477 23.6413 30.5323 23.4521 30.8532 23.1779C31.174 22.9036 31.4207 22.5532 31.5707 22.1586C32.3068 20.2257 32.6587 18.1677 32.6067 16.1C32.4566 12.0386 30.7861 8.18194 27.9264 5.29427C25.0666 2.40661 21.2263 0.698781 17.1667 0.509298C15.02 0.434655 12.8802 0.793018 10.875 1.56302C8.86979 2.33302 7.04014 3.4989 5.49514 4.99114C3.95014 6.48339 2.72143 8.27144 1.88225 10.2487C1.04307 12.226 0.610612 14.352 0.610657 16.5C0.615597 20.7419 2.30289 24.8087 5.3024 27.8082C8.30192 30.8077 12.3687 32.495 16.6107 32.5C17.0613 32.5 17.504 32.4706 17.944 32.4333C18.2779 32.4052 18.5889 32.2524 18.8152 32.0053C19.0415 31.7582 19.1665 31.435 19.1653 31.1L19.1227 26.316C19.1119 25.3706 19.3831 24.4435 19.9016 23.6529C20.4202 22.8624 21.1626 22.2444 22.0341 21.8778C22.9056 21.5112 23.8665 21.4126 24.7942 21.5947C25.722 21.7767 26.5744 22.2312 27.2427 22.9ZM23.32 11.2333C23.7023 11.1319 24.1061 11.146 24.4803 11.2741C24.8546 11.4021 25.1824 11.6382 25.4225 11.9526C25.6625 12.267 25.804 12.6455 25.8289 13.0402C25.8539 13.435 25.7613 13.8282 25.5627 14.1703C25.3642 14.5124 25.0686 14.788 24.7135 14.9621C24.3584 15.1363 23.9596 15.2012 23.5675 15.1487C23.1755 15.0962 22.8078 14.9287 22.511 14.6672C22.2142 14.4058 22.0016 14.0622 21.9 13.68C21.8325 13.4261 21.8158 13.1614 21.8506 12.901C21.8855 12.6406 21.9713 12.3897 22.1032 12.1625C22.235 11.9353 22.4104 11.7363 22.6191 11.5768C22.8279 11.4174 23.0661 11.3007 23.32 11.2333ZM11.0133 23.1C10.631 23.2014 10.2272 23.1872 9.85298 23.0592C9.47874 22.9311 9.15087 22.695 8.91082 22.3806C8.67077 22.0663 8.52933 21.6878 8.50437 21.2931C8.47941 20.8983 8.57206 20.505 8.77061 20.1629C8.96915 19.8208 9.26468 19.5453 9.61981 19.3711C9.97494 19.197 10.3737 19.1321 10.7658 19.1845C11.1578 19.237 11.5255 19.4046 11.8223 19.666C12.1191 19.9275 12.3318 20.271 12.4333 20.6533C12.5008 20.9072 12.5176 21.1719 12.4827 21.4323C12.4478 21.6926 12.362 21.9436 12.2302 22.1708C12.0983 22.398 11.923 22.597 11.7142 22.7564C11.5054 22.9159 11.2672 23.0326 11.0133 23.1ZM11.0133 15.1C10.631 15.2014 10.2272 15.1872 9.85298 15.0592C9.47874 14.9311 9.15087 14.695 8.91082 14.3806C8.67077 14.0663 8.52933 13.6878 8.50437 13.2931C8.47941 12.8983 8.57206 12.505 8.77061 12.1629C8.96915 11.8208 9.26468 11.5453 9.61981 11.3711C9.97494 11.197 10.3737 11.1321 10.7658 11.1845C11.1578 11.237 11.5255 11.4046 11.8223 11.666C12.1191 11.9275 12.3318 12.271 12.4333 12.6533C12.5008 12.9072 12.5176 13.1719 12.4827 13.4323C12.4478 13.6926 12.362 13.9436 12.2302 14.1708C12.0983 14.398 11.923 14.597 11.7142 14.7564C11.5054 14.9159 11.2672 15.0326 11.0133 15.1ZM17.68 11.1C17.2977 11.2014 16.8939 11.1872 16.5196 11.0592C16.1454 10.9311 15.8175 10.695 15.5775 10.3806C15.3374 10.0663 15.196 9.6878 15.171 9.29305C15.1461 8.89831 15.2387 8.50502 15.4373 8.16293C15.6358 7.82084 15.9313 7.5453 16.2865 7.37115C16.6416 7.197 17.0404 7.13206 17.4324 7.18455C17.8245 7.23703 18.1922 7.40459 18.489 7.66602C18.7858 7.92745 18.9984 8.27102 19.1 8.6533C19.1674 8.90719 19.1842 9.17188 19.1494 9.43225C19.1145 9.69263 19.0287 9.94359 18.8968 10.1708C18.765 10.398 18.5896 10.597 18.3808 10.7564C18.1721 10.9159 17.9339 11.0326 17.68 11.1Z" fill="#FF782D"/>
</g>
<defs>
<clipPath id="clip0_277_567">
<rect width="32" height="32" fill="white" transform="translate(0.5 0.5)"/>
</clipPath>
</defs>
</svg>
