<svg width="33" height="33" viewBox="0 0 33 33" fill="none" xmlns="http://www.w3.org/2000/svg">
<path d="M28.4383 6.46589C28.4366 6.22922 28.3991 5.98839 28.3416 5.75839C27.9591 4.21172 26.6816 3.22922 25.0291 3.22172C23.0433 3.21339 21.0583 3.22005 19.0724 3.22005C14.6958 3.22005 10.3199 3.21589 5.94327 3.22172C3.93661 3.22422 2.49327 4.64339 2.49161 6.61505C2.48661 12.5626 2.48827 18.5101 2.49411 24.4576C2.49411 24.7351 2.52411 25.0201 2.58994 25.2892C2.95911 26.8109 4.23161 27.8267 5.83327 27.8326C9.64827 27.8476 13.4633 27.8376 17.2791 27.8376C17.3399 27.8376 17.4016 27.8284 17.5116 27.8201C17.5116 27.7151 17.5174 27.6334 17.5108 27.5534C17.4274 26.5192 17.7283 25.5992 18.2541 24.7117C19.5024 22.6026 20.7058 20.4667 21.9433 18.3509C22.2608 17.8067 22.5749 17.2784 22.4608 16.6126C22.4583 16.5959 22.4749 16.5759 22.4966 16.5234C22.9941 16.6851 23.1299 16.2892 23.3149 15.9617C23.3608 15.8809 23.4074 15.8001 23.4541 15.7184C23.6741 15.3351 23.8941 14.9526 24.1433 14.5201H22.4791V10.5517H26.4366C26.4449 10.7134 26.4516 10.8609 26.4583 10.9901C26.7891 10.8684 27.0899 10.7184 27.4083 10.6517C27.7366 10.5834 28.0808 10.5976 28.4349 10.5742C28.4383 10.5276 28.4441 10.4776 28.4441 10.4276C28.4441 9.10672 28.4474 7.78589 28.4383 6.46589ZM8.45494 25.8209C7.48494 25.8209 6.52077 25.8534 5.56077 25.8084C5.01911 25.7826 4.53744 25.2542 4.50577 24.6934C4.46577 23.9817 4.49577 23.2651 4.49577 22.5234H8.45494V25.8209ZM8.45661 20.5009H4.50411V16.5426H8.45661V20.5009ZM8.46327 14.5059H4.50827V10.5509H8.46327V14.5059ZM8.46327 8.52255H4.48661V7.86089C4.48661 7.41422 4.47911 6.96755 4.48911 6.52089C4.50244 5.88755 4.95827 5.28339 5.55827 5.25089C6.51911 5.19922 7.48411 5.23672 8.46327 5.23672V8.52255ZM19.0166 17.0851C17.6841 17.8492 16.3558 18.6192 15.0249 19.3876C14.6658 19.5951 14.3066 19.8042 13.9466 20.0101C12.8541 20.6342 11.8024 20.0317 11.7983 18.7784C11.7949 17.8017 11.7974 16.8251 11.7974 15.8476C11.7974 14.8817 11.7958 13.9151 11.7983 12.9484C11.8016 11.6892 12.8533 11.0851 13.9433 11.7134C15.6424 12.6934 17.3408 13.6759 19.0408 14.6542C19.4966 14.9167 19.7766 15.2884 19.7874 15.8292C19.7983 16.4101 19.5058 16.8042 19.0166 17.0851ZM26.4483 8.51422H22.4666V5.23922C22.5566 5.23172 22.6449 5.21755 22.7333 5.21755C23.4916 5.21589 24.2499 5.21339 25.0083 5.21755C25.9091 5.22255 26.4441 5.75672 26.4474 6.65089C26.4499 7.26422 26.4483 7.87672 26.4483 8.51422Z" fill="#FF782D"/>
<path d="M25.5832 14.6951C23.5474 18.2226 21.5224 21.7309 19.4857 25.2592C20.6557 25.9342 21.7916 26.5901 22.9457 27.2559C24.9866 23.7209 27.0116 20.2126 29.0432 16.6917C27.8699 16.0142 26.7399 15.3626 25.5832 14.6951ZM25.7349 19.7301C25.5432 20.0409 25.1607 20.1001 24.8557 19.9159C24.5674 19.7409 24.4374 19.3826 24.6032 19.0759C24.9382 18.4551 25.2891 17.8417 25.6666 17.2459C25.7641 17.0926 25.9841 17.0159 26.1482 16.9042C26.6757 16.9542 27.0216 17.4551 26.7924 17.8976C26.4674 18.5234 26.1057 19.1309 25.7349 19.7301Z" fill="#FF782D"/>
<path d="M28.4441 24.4117C28.4374 26.385 27.0299 27.8084 25.0599 27.8375C24.7807 27.8409 24.5016 27.8375 24.1449 27.8375C24.5391 27.155 24.8982 26.5267 25.2674 25.905C25.3024 25.8467 25.3999 25.8167 25.4741 25.79C26.1182 25.5634 26.4624 25.1134 26.4399 24.4309C26.4266 24.0184 26.5332 23.6717 26.7441 23.3217C27.3041 22.3909 27.8366 21.4425 28.4216 20.4292C28.4324 20.595 28.4441 20.6809 28.4441 20.7667C28.4449 21.9817 28.4474 23.1967 28.4441 24.4117Z" fill="#FF782D"/>
<path d="M30.2957 14.51C30.1232 14.8508 29.9182 15.175 29.7099 15.5383C28.5407 14.8642 27.4041 14.2083 26.2466 13.5408C26.4707 13.1608 26.6599 12.7908 26.8941 12.4533C27.2641 11.9208 27.9741 11.7567 28.5583 12.0617C28.9899 12.2867 29.4124 12.5308 29.8233 12.7917C30.4158 13.1667 30.6124 13.8858 30.2957 14.51Z" fill="#FF782D"/>
<path d="M22.1966 28.3634C22.0008 28.5067 21.8533 28.6376 21.6858 28.7334C21.0916 29.0734 20.4949 29.4092 19.8916 29.7326C19.4391 29.9759 18.9208 29.7634 18.8924 29.2834C18.8433 28.4351 18.8633 27.5826 18.8583 26.7309C18.8583 26.6617 18.8924 26.5909 18.9233 26.4734C20.0233 27.1084 21.0874 27.7234 22.1966 28.3634Z" fill="#FF782D"/>
</svg>
