<svg width="20" height="14" viewBox="0 0 20 14" fill="none" xmlns="http://www.w3.org/2000/svg">
<path fill-rule="evenodd" clip-rule="evenodd" d="M0.0683594 1C0.0683594 0.447715 0.51468 0 1.06524 0H19.0092C19.5597 0 20.0061 0.447715 20.0061 1C20.0061 1.55228 19.5597 2 19.0092 2H1.06524C0.51468 2 0.0683594 1.55228 0.0683594 1ZM0.0683594 7C0.0683594 6.44772 0.51468 6 1.06524 6H19.0092C19.5597 6 20.0061 6.44772 20.0061 7C20.0061 7.55228 19.5597 8 19.0092 8H1.06524C0.51468 8 0.0683594 7.55228 0.0683594 7ZM0.0683594 13C0.0683594 12.4477 0.51468 12 1.06524 12H19.0092C19.5597 12 20.0061 12.4477 20.0061 13C20.0061 13.5523 19.5597 14 19.0092 14H1.06524C0.51468 14 0.0683594 13.5523 0.0683594 13Z" fill="black"/>
</svg>
