<svg width="57" height="56" viewBox="0 0 57 56" fill="none" xmlns="http://www.w3.org/2000/svg">
<rect x="0.5" width="56" height="56" rx="8" fill="#F5F5F5"/>
<g clip-path="url(#clip0_2_2736)">
<path d="M21.3267 26.3867C23.2467 30.16 26.34 33.24 30.1133 35.1733L33.0467 32.24C33.4067 31.88 33.94 31.76 34.4067 31.92C35.9 32.4133 37.5133 32.68 39.1667 32.68C39.9 32.68 40.5 33.28 40.5 34.0133V38.6667C40.5 39.4 39.9 40 39.1667 40C26.6467 40 16.5 29.8533 16.5 17.3333C16.5 16.6 17.1 16 17.8333 16H22.5C23.2333 16 23.8333 16.6 23.8333 17.3333C23.8333 19 24.1 20.6 24.5933 22.0933C24.74 22.56 24.6333 23.08 24.26 23.4533L21.3267 26.3867Z" fill="#FF782D"/>
</g>
<defs>
<clipPath id="clip0_2_2736">
<rect width="32" height="32" fill="white" transform="translate(12.5 12)"/>
</clipPath>
</defs>
</svg>
